<svg width="83" height="39" viewBox="0 0 83 39" version="1.1" xmlns="http://www.w3.org/2000/svg" xmlns:xlink="http://www.w3.org/1999/xlink" xmlns:figma="http://www.figma.com/figma/ns">
<title>Logo</title>
<desc>Created using Figma</desc>
<g id="Canvas" transform="translate(243 89)" figma:type="canvas">
<g id="Logo" style="mix-blend-mode:normal;" figma:type="frame">
<g id="Group" style="mix-blend-mode:normal;" figma:type="frame">
<g id="Vector" style="mix-blend-mode:normal;" figma:type="vector">
<use xlink:href="#path0_fill" transform="translate(-242 -64.5)" fill="#26885B" style="mix-blend-mode:normal;"/>
<use xlink:href="#path1_fill" transform="translate(-242 -64.5)" fill="#26885B" style="mix-blend-mode:normal;"/>
<use xlink:href="#path2_fill" transform="translate(-242 -64.5)" fill="#26885B" style="mix-blend-mode:normal;"/>
<use xlink:href="#path3_fill" transform="translate(-242 -64.5)" fill="#26885B" style="mix-blend-mode:normal;"/>
</g>
</g>
<g id="Logo" style="mix-blend-mode:normal;" figma:type="vector">
<use xlink:href="#path4_fill" transform="translate(-243 -89)" fill="#44D191" style="mix-blend-mode:normal;"/>
<use xlink:href="#path5_fill" transform="translate(-243 -89)" fill="#44D191" style="mix-blend-mode:normal;"/>
<use xlink:href="#path6_fill" transform="translate(-243 -89)" fill="#44D191" style="mix-blend-mode:normal;"/>
<use xlink:href="#path7_fill" transform="translate(-243 -89)" fill="#44D191" style="mix-blend-mode:normal;"/>
<use xlink:href="#path8_fill" transform="translate(-243 -89)" fill="#44D191" style="mix-blend-mode:normal;"/>
<use xlink:href="#path9_fill" transform="translate(-243 -89)" fill="#44D191" style="mix-blend-mode:normal;"/>
<use xlink:href="#path10_fill" transform="translate(-243 -89)" fill="#44D191" style="mix-blend-mode:normal;"/>
<use xlink:href="#path11_fill" transform="translate(-243 -89)" fill="#44D191" style="mix-blend-mode:normal;"/>
<use xlink:href="#path12_fill" transform="translate(-243 -89)" fill="#44D191" style="mix-blend-mode:normal;"/>
<use xlink:href="#path13_fill" transform="translate(-243 -89)" fill="#44D191" style="mix-blend-mode:normal;"/>
<use xlink:href="#path14_fill" transform="translate(-243 -89)" fill="#44D191" style="mix-blend-mode:normal;"/>
<use xlink:href="#path15_fill" transform="translate(-243 -89)" fill="#44D191" style="mix-blend-mode:normal;"/>
<use xlink:href="#path16_fill" transform="translate(-243 -89)" fill="#44D191" style="mix-blend-mode:normal;"/>
<use xlink:href="#path17_fill" transform="translate(-243 -89)" fill="#44D191" style="mix-blend-mode:normal;"/>
<use xlink:href="#path18_fill" transform="translate(-243 -89)" fill="#44D191" style="mix-blend-mode:normal;"/>
<use xlink:href="#path19_fill" transform="translate(-243 -89)" fill="#44D191" style="mix-blend-mode:normal;"/>
<use xlink:href="#path20_fill" transform="translate(-243 -89)" fill="#44D191" style="mix-blend-mode:normal;"/>
<use xlink:href="#path21_fill" transform="translate(-243 -89)" fill="#44D191" style="mix-blend-mode:normal;"/>
<use xlink:href="#path22_fill" transform="translate(-243 -89)" fill="#44D191" style="mix-blend-mode:normal;"/>
</g>
</g>
</g>
<defs>
<path id="path0_fill" d="M 18.8038 5.1609L 21.8907 3.37872L 18.3196 0L 4.72832 0L 0 4.57265L 3.49962 7.72691L 3.49962 6.5L 19.577 6.5L 18.8038 5.1609Z"/>
<path id="path1_fill" d="M 8.49962 5.50003C 8.49962 7.15688 7.15647 8.50003 5.49962 8.50003C 3.84276 8.50003 2.49962 7.15688 2.49962 5.50003C 2.49962 3.84318 3.84276 2.50003 5.49962 2.50003C 7.15647 2.50003 8.49962 3.84318 8.49962 5.50003Z"/>
<path id="path2_fill" d="M 22.7996 5.50003C 22.7996 7.15688 21.4565 8.50003 19.7996 8.50003C 18.1428 8.50003 16.7996 7.15688 16.7996 5.50003C 16.7996 3.84318 18.1428 2.50003 19.7996 2.50003C 21.4565 2.50003 22.7996 3.84318 22.7996 5.50003Z"/>
<path id="path3_fill" d="M 5.49962 2.50003L 19.4996 2.50003L 19.4996 8.50003L 5.49962 8.50003L 5.49962 2.50003Z"/>
<path id="path4_fill" d="M 66.2993 4.8234C 66.2993 4.21504 66.321 3.62117 66.3644 3.04178C 66.4078 2.4624 66.5307 1.94819 66.7331 1.49916C 66.9355 1.05014 67.2392 0.688021 67.6441 0.412813C 68.0634 0.137605 68.6418 0 69.3792 0C 70.1311 0 70.7095 0.137605 71.1143 0.412813C 71.5336 0.688021 71.8373 1.05014 72.0253 1.49916C 72.2277 1.94819 72.3506 2.4624 72.394 3.04178C 72.4374 3.62117 72.4591 4.21504 72.4591 4.8234L 72.4591 13.3838L 72.8061 13.3838L 77.2741 8.12591C 77.5343 7.82173 77.838 7.60446 78.185 7.47409C 78.532 7.32925 78.8935 7.25682 79.2695 7.25682C 79.6309 7.25682 79.9924 7.32925 80.3539 7.47409C 80.7299 7.60446 81.0552 7.8 81.3299 8.06072C 81.6191 8.30696 81.8505 8.61114 82.024 8.97326C 82.212 9.32089 82.3059 9.71922 82.3059 10.1682C 82.3059 10.7476 82.1035 11.2836 81.6986 11.776L 77.7946 16.3822L 82.0457 24.5081C 82.3059 25.0295 82.5301 25.5582 82.718 26.0942C 82.906 26.6156 83 27.1153 83 27.5933C 83 28.0568 82.8988 28.4696 82.6964 28.8318C 82.4939 29.1939 82.2264 29.498 81.8939 29.7443C 81.5757 29.976 81.2143 30.1571 80.8094 30.2875C 80.419 30.4033 80.0358 30.4613 79.6599 30.4613C 79.1827 30.4613 78.7561 30.3454 78.3802 30.1136C 78.0043 29.8819 77.6717 29.5994 77.3825 29.2663C 77.1078 28.9187 76.862 28.5493 76.6451 28.1582C 76.4282 27.7671 76.2474 27.405 76.1028 27.0719L 73.6736 21.9008L 72.4591 21.9008L 72.4591 25.551C 72.4591 26.1593 72.4374 26.7604 72.394 27.3543C 72.3506 27.9337 72.2277 28.4552 72.0253 28.9187C 71.8373 29.3677 71.5336 29.7298 71.1143 30.005C 70.7095 30.2802 70.1311 30.4178 69.3792 30.4178C 68.6418 30.4178 68.0634 30.2802 67.6441 30.005C 67.2392 29.7298 66.9355 29.3677 66.7331 28.9187C 66.5307 28.4552 66.4078 27.9337 66.3644 27.3543C 66.321 26.7604 66.2993 26.1593 66.2993 25.551L 66.2993 4.8234Z"/>
<path id="path5_fill" d="M 32.6206 34.1331C 30.7474 34.1331 28.5232 31.7291 28.5232 31.7291L 24.4049 36.0096C 24.4049 36.0096 27.7622 39 32.6206 39C 43.266 39 42.7085 29.8653 42.7085 29.8653C 42.7085 27.4658 36.6073 29.8653 36.6073 29.8653C 36.6073 29.8653 37.1965 34.1331 32.6206 34.1331Z"/>
<path id="path6_fill" d="M 23.388 13.4805L 29.4892 13.4805L 29.4892 20.6488L 23.388 20.6488L 23.388 13.4805Z"/>
<path id="path7_fill" d="M 36.6073 12.4564L 42.7085 12.4564L 42.7085 20.6488L 36.6073 20.6488L 36.6073 12.4564Z"/>
<path id="path8_fill" d="M 36.6073 18.6007L 42.7085 18.6007L 42.7085 29.8653L 36.6073 29.8653L 36.6073 18.6007Z"/>
<path id="path9_fill" d="M 29.4892 13.4805C 29.4892 15.1772 28.1234 16.5526 26.4386 16.5526C 24.7538 16.5526 23.388 15.1772 23.388 13.4805C 23.388 11.7838 24.7538 10.4083 26.4386 10.4083C 28.1234 10.4083 29.4892 11.7838 29.4892 13.4805Z"/>
<path id="path10_fill" d="M 42.7085 12.4564C 42.7085 14.1531 41.3427 15.5286 39.6579 15.5286C 37.9731 15.5286 36.6073 14.1531 36.6073 12.4564C 36.6073 10.7597 37.9731 9.38428 39.6579 9.38428C 41.3427 9.38428 42.7085 10.7597 42.7085 12.4564Z"/>
<path id="path11_fill" d="M 29.3254 33.7766C 29.3254 35.4277 27.9962 36.7662 26.3567 36.7662C 24.7171 36.7662 23.388 35.4277 23.388 33.7766C 23.388 32.1255 24.7171 30.787 26.3567 30.787C 27.9962 30.787 29.3254 32.1255 29.3254 33.7766Z"/>
<path id="path12_fill" d="M 23.388 20.1368C 23.388 25.5097 27.7131 29.8653 33.0483 29.8653C 38.3835 29.8653 42.7085 25.5097 42.7085 20.1368L 36.6073 20.1368C 36.6073 22.1163 35.0139 23.721 33.0483 23.721C 31.0827 23.721 29.4892 22.1163 29.4892 20.1368L 23.388 20.1368Z"/>
<path id="path13_fill" d="M 57.9616 9.43487C 57.6271 9.40143 57.2879 9.38431 56.9447 9.38431C 51.3287 9.38431 46.776 13.9691 46.776 19.6248C 46.776 25.2805 51.3287 29.8653 56.9447 29.8653C 57.2879 29.8653 57.6271 29.8482 57.9616 29.8148L 57.9616 23.721C 55.7152 23.721 53.8941 21.8871 53.8941 19.6248C 53.8941 17.3625 55.7152 15.5286 57.9616 15.5286L 57.9616 9.43487Z"/>
<path id="path14_fill" d="M 62.0291 12.4565C 62.0291 14.1532 60.6633 15.5286 58.9785 15.5286C 57.2937 15.5286 55.9279 14.1532 55.9279 12.4565C 55.9279 10.7597 57.2937 9.3843 58.9785 9.3843C 60.6633 9.3843 62.0291 10.7597 62.0291 12.4565Z"/>
<path id="path15_fill" d="M 62.0291 26.7932C 62.0291 28.4899 60.6633 29.8653 58.9785 29.8653C 57.2937 29.8653 55.9279 28.4899 55.9279 26.7932C 55.9279 25.0964 57.2937 23.721 58.9785 23.721C 60.6633 23.721 62.0291 25.0964 62.0291 26.7932Z"/>
<path id="path16_fill" d="M 56.9447 9.38431L 58.9785 9.3843L 58.9785 15.5286L 56.9447 15.5286L 56.9447 9.38431Z"/>
<path id="path17_fill" d="M 56.9447 23.721L 58.9785 23.721L 58.9785 29.8653L 56.9447 29.8653L 56.9447 23.721Z"/>
<path id="path18_fill" d="M 6.10122 26.7931C 6.10122 28.4898 4.73542 29.8653 3.05061 29.8653C 1.3658 29.8653 0 28.4898 0 26.7931C 0 25.0964 1.3658 23.721 3.05061 23.721C 4.73542 23.721 6.10122 25.0964 6.10122 26.7931Z"/>
<path id="path19_fill" d="M 20.3374 26.7932C 20.3374 28.4899 18.9716 29.8653 17.2868 29.8653C 15.602 29.8653 14.2362 28.4899 14.2362 26.7932C 14.2362 25.0964 15.602 23.721 17.2868 23.721C 18.9716 23.721 20.3374 25.0964 20.3374 26.7932Z"/>
<path id="path20_fill" d="M 6.10122 4.26403C 6.10122 5.96073 4.73542 7.33618 3.05061 7.33618C 1.3658 7.33618 0 5.96073 0 4.26403C 0 2.56732 1.3658 1.19187 3.05061 1.19187C 4.73542 1.19187 6.10122 2.56732 6.10122 4.26403Z"/>
<path id="path21_fill" d="M 0 26.7931L 0 4.26403L 6.10122 4.26403L 6.10122 26.7931L 0 26.7931Z"/>
<path id="path22_fill" d="M 3.05061 23.721L 17.2868 23.721L 17.2868 29.8653L 3.05061 29.8653L 3.05061 23.721Z"/>
</defs>
</svg>
