<?xml version="1.0" standalone="no"?>
<!DOCTYPE svg PUBLIC "-//W3C//DTD SVG 20010904//EN"
 "http://www.w3.org/TR/2001/REC-SVG-20010904/DTD/svg10.dtd">
<svg version="1.0" xmlns="http://www.w3.org/2000/svg"
 width="300.000000pt" height="300.000000pt" viewBox="0 0 300.000000 300.000000"
 preserveAspectRatio="xMidYMid meet">
<metadata>
Created by potrace 1.11, written by Peter Selinger 2001-2013
</metadata>
<g transform="translate(0.000000,300.000000) scale(0.100000,-0.100000)"
fill="#000000" stroke="none">
<path d="M360 2986 c-173 -49 -293 -170 -344 -347 -15 -50 -16 -170 -14 -1160
3 -1101 3 -1104 24 -1161 42 -109 124 -204 223 -256 122 -65 57 -62 1240 -62
1166 0 1141 -1 1250 55 71 35 163 125 198 192 67 125 64 55 61 1274 -3 1101
-3 1104 -24 1161 -42 109 -124 204 -223 256 -123 65 -55 62 -1255 61 -848 -1
-1101 -4 -1136 -13z m705 -461 c17 -7 46 -27 64 -46 69 -69 66 -26 69 -841 l3
-737 437 -3 438 -3 49 -25 c156 -80 160 -298 7 -387 l-47 -28 -580 0 -580 0
-47 23 c-57 28 -98 80 -115 146 -17 65 -19 1667 -2 1744 29 139 170 212 304
157z"/>
</g>
</svg>
